<svg width="31" height="24" viewBox="0 0 31 24" fill="none" xmlns="http://www.w3.org/2000/svg">
    <path fill-rule="evenodd" clip-rule="evenodd" d="M2.10395 0.0751326C1.05328 0.328299 0.300289 1.09981 0.0829729 2.14573C0.00732648 2.50958 -0.0128993 5.23152 0.00741562 12.3103L0.0352147 21.978L0.285676 22.4952C0.586658 23.1168 1.09827 23.5835 1.74969 23.8307C2.22575 24.0113 2.37402 24.013 15.6564 23.9895L29.082 23.9657L29.5331 23.7243C30.1263 23.4069 30.5754 22.8897 30.8099 22.2544L31 21.739L30.9766 11.8682L30.9531 1.99737L30.6842 1.4642C30.3954 0.891553 29.7835 0.338057 29.2157 0.135849C28.8357 0.00059192 2.65673 -0.0580462 2.10395 0.0751326ZM28.5889 1.90232C28.7621 1.96286 28.9578 2.11962 29.0344 2.25921L29.1711 2.50831L23.4241 8.32345C17.1912 14.6302 17.346 14.4945 16.1279 14.7242C15.7114 14.8028 15.4229 14.8039 14.9896 14.7286C13.7679 14.5164 13.9068 14.6378 7.63104 8.29689C4.4579 5.09084 1.86178 2.44154 1.86178 2.40938C1.86178 2.28677 2.32982 1.88371 2.51462 1.84721C2.62109 1.82615 8.46191 1.80564 15.4942 1.80176C25.1844 1.79625 28.3549 1.82064 28.5889 1.90232ZM5.3367 8.51554L8.76619 11.9941L5.3367 15.4726C3.45044 17.3858 1.87692 18.9512 1.83995 18.9512C1.80297 18.9512 1.77268 15.8205 1.77268 11.9941C1.77268 8.16769 1.80297 5.03699 1.83995 5.03699C1.87692 5.03699 3.45044 6.60234 5.3367 8.51554ZM29.2157 12.0162V18.9051L25.7853 15.4275L22.3549 11.9498L25.718 8.53858C27.5678 6.66242 29.1114 5.12734 29.1484 5.12734C29.1854 5.12734 29.2157 8.22732 29.2157 12.0162ZM11.2979 14.4562C12.6109 15.7538 13.1654 16.112 14.2695 16.376C15.8083 16.7439 17.6664 16.332 18.88 15.354C19.1005 15.1763 19.6831 14.6333 20.1746 14.1474L21.0684 13.2637L25.1197 17.3729L29.1711 21.4821L29.0348 21.7287C28.9598 21.8644 28.7994 22.0261 28.6784 22.0883C28.5054 22.177 25.6886 22.2015 15.512 22.2025C1.49709 22.204 2.20205 22.2281 1.94384 21.7387C1.85046 21.5618 2.16686 21.2175 5.92806 17.4028C8.17518 15.1237 10.0301 13.259 10.0501 13.259C10.0701 13.259 10.6316 13.7978 11.2979 14.4562Z" fill="#777777"/>
</svg>
