<svg width="29" height="28" viewBox="0 0 29 28" fill="none" xmlns="http://www.w3.org/2000/svg">
    <path fill-rule="evenodd" clip-rule="evenodd" d="M12.9563 0.0503001C7.90528 0.619597 3.57645 3.67236 1.40876 8.19373C-1.9574 15.2149 0.906461 23.5804 7.89371 27.1369C8.30702 27.3473 8.95467 27.6345 9.33284 27.7752C10.1371 28.0745 10.4732 28.0748 10.7299 27.7764C10.8805 27.6014 10.8851 27.5521 10.8851 26.1106V24.6251L10.6956 24.6709C10.5914 24.696 10.1029 24.7338 9.61011 24.7548C8.56162 24.7994 8.00784 24.6998 7.34655 24.3474C6.69724 24.0015 6.33513 23.5891 5.89776 22.6975C5.47356 21.8327 5.11669 21.361 4.58827 20.9666C3.82139 20.394 3.68527 20.1563 4.04476 20.0174C4.78518 19.7312 6.05497 20.41 6.71813 21.4464C7.44283 22.5788 8.29545 23.0446 9.50294 22.9677C10.2429 22.9206 10.9541 22.6898 10.9541 22.4969C10.9541 22.2292 11.2486 21.4968 11.5113 21.1115C11.8212 20.6567 11.9079 20.7289 10.8318 20.5446C7.40651 19.958 5.64641 18.0778 5.29636 14.6318C5.11421 12.838 5.46322 11.4084 6.38538 10.1709L6.71764 9.72497L6.60062 9.27714C6.37235 8.40345 6.48483 6.83363 6.83005 6.07632C6.91607 5.88754 6.92675 5.88444 7.36798 5.92199C8.19331 5.99212 9.4285 6.4837 10.4979 7.16758L10.8582 7.39797L11.6126 7.23888C13.5178 6.83715 15.4892 6.83715 17.3944 7.23888L18.1488 7.39797L18.509 7.16758C19.5831 6.48081 20.8137 5.99212 21.648 5.92123L22.1072 5.88223L22.2956 6.46007C22.5511 7.2444 22.6054 8.51658 22.4145 9.24889L22.2871 9.73737L22.6201 10.1762C23.755 11.6722 24.0524 13.7482 23.4639 16.0674C22.8063 18.6589 20.9258 20.1691 17.8289 20.5931C17.4972 20.6385 17.2258 20.6974 17.2258 20.724C17.2258 20.7506 17.2992 20.86 17.3889 20.9671C17.6615 21.2927 17.8983 21.8311 18.0129 22.386C18.0997 22.8058 18.1218 23.3888 18.1218 25.2545C18.1218 27.584 18.1226 27.597 18.277 27.7764C18.534 28.0752 18.87 28.0746 19.6741 27.7743C27.5492 24.8327 31.223 15.7545 27.5982 8.19373C25.5573 3.93685 21.6376 0.995706 16.9157 0.178242C15.958 0.0124063 13.8862 -0.0545613 12.9563 0.0503001ZM5.14177 20.4155C5.01207 20.5451 5.27445 20.7477 5.43972 20.6456C5.51843 20.5969 5.51932 20.5679 5.44475 20.4781C5.3504 20.3645 5.21979 20.3375 5.14177 20.4155ZM5.75014 20.9214C5.66454 21.0599 5.79101 21.2652 5.96193 21.2652C6.16125 21.2652 6.18055 21.126 6.00356 20.9659C5.85752 20.8337 5.80955 20.8253 5.75014 20.9214ZM6.28875 21.7224C6.23141 21.8719 6.35085 22.0524 6.52418 22.0784C6.7071 22.1058 6.76575 21.9386 6.63742 21.7554C6.51564 21.5817 6.34885 21.5659 6.28875 21.7224ZM6.95666 22.5949C6.95666 22.7945 7.0781 22.9188 7.27321 22.9188C7.46916 22.9188 7.52457 22.7664 7.39555 22.5822C7.25157 22.3767 6.95666 22.3853 6.95666 22.5949ZM7.94616 23.1608C7.88227 23.3273 8.05891 23.4793 8.28945 23.4562C8.53494 23.4317 8.59084 23.3221 8.43659 23.1679C8.29613 23.0275 7.99895 23.0232 7.94616 23.1608ZM10.2817 23.205C10.1476 23.3391 10.1804 23.4634 10.3618 23.5089C10.5742 23.5622 10.8311 23.4264 10.8026 23.2759C10.7756 23.1332 10.4041 23.0827 10.2817 23.205ZM9.11767 23.3678C9.09334 23.4312 9.12325 23.5295 9.18611 23.5923C9.33601 23.7422 9.67903 23.6319 9.67903 23.4338C9.67903 23.2504 9.18507 23.1923 9.11767 23.3678Z" fill="#777777"/>
</svg>
