<svg width="651" height="173" viewBox="0 0 651 173" fill="none" xmlns="http://www.w3.org/2000/svg">
    <g clip-path="url(#clip0)">
        <path d="M250.27 134.445C245.693 135.277 239.522 135.693 231.757 135.693C224.037 135.693 217.058 134.63 210.817 132.504C204.623 130.378 199.285 127.234 194.801 123.074C185.186 114.153 180.379 101.719 180.379 85.7715C180.379 75.3711 182.852 66.3574 187.798 58.7305C194.5 48.4225 204.785 41.8587 218.652 39.0391C222.905 38.207 227.966 37.791 233.837 37.791C239.754 37.791 244.492 38.1146 248.051 38.7617V52.0049C244.815 50.988 239.8 50.4795 233.005 50.4795C226.256 50.4795 220.524 51.3115 215.81 52.9756C211.095 54.6396 207.189 57.0202 204.092 60.1172C197.898 66.1725 194.801 74.724 194.801 85.7715C194.801 96.9115 197.852 105.74 203.953 112.258C210.563 119.284 220.062 122.797 232.45 122.797C239.707 122.797 245.647 122.242 250.27 121.133V134.445ZM264.483 86.8809C264.483 79.3464 265.616 72.5283 267.881 66.4268C270.146 60.3252 273.289 55.125 277.311 50.8262C285.77 41.8587 296.748 37.375 310.245 37.375C323.789 37.375 334.744 41.8587 343.11 50.8262C351.616 59.9323 355.868 71.9505 355.868 86.8809C355.868 101.811 351.616 113.783 343.11 122.797C334.79 131.672 323.835 136.109 310.245 136.109C296.701 136.109 285.723 131.672 277.311 122.797C268.759 113.737 264.483 101.765 264.483 86.8809ZM278.351 86.8115C278.351 97.3506 280.916 106.064 286.047 112.951C291.825 120.624 299.891 124.461 310.245 124.461C320.599 124.461 328.642 120.624 334.374 112.951C339.459 106.156 342.001 97.4893 342.001 86.9502C342.001 76.3187 339.459 67.5592 334.374 60.6719C328.642 52.9062 320.599 49.0234 310.245 49.0234C299.845 49.0234 291.779 52.9062 286.047 60.6719C280.916 67.5592 278.351 76.2725 278.351 86.8115ZM374.104 38.5537H397.539C413.348 38.5537 425.874 42.4596 435.119 50.2715C445.104 58.638 450.096 70.8411 450.096 86.8809C450.096 102.921 445.242 115.101 435.535 123.421C426.475 131.14 414.041 135 398.232 135H374.104V38.5537ZM435.882 86.9502C435.882 62.1279 422.8 49.7168 396.638 49.7168H387.971V123.906H397.4C417.369 123.906 429.526 116.695 433.871 102.273C435.212 97.6973 435.882 92.5895 435.882 86.9502ZM500.711 38.4844H510.21L550.91 135H536.488L526.712 110.732H483.862L474.155 135H460.011L500.711 38.4844ZM522.274 99.6387L505.356 57.3438L488.369 99.6387H522.274ZM636.401 148.035V158.574H552.158V148.035H636.401Z" fill="#777777"/>
        <path d="M366.554 155.214L368.118 154.968C368.206 155.595 368.449 156.075 368.848 156.409C369.252 156.743 369.814 156.91 370.535 156.91C371.262 156.91 371.801 156.764 372.152 156.471C372.504 156.172 372.68 155.823 372.68 155.425C372.68 155.067 372.524 154.786 372.214 154.581C371.997 154.44 371.458 154.262 370.597 154.045C369.437 153.752 368.631 153.5 368.18 153.289C367.734 153.072 367.395 152.776 367.16 152.401C366.932 152.021 366.817 151.602 366.817 151.145C366.817 150.729 366.911 150.345 367.099 149.993C367.292 149.636 367.553 149.34 367.881 149.105C368.127 148.924 368.461 148.771 368.883 148.648C369.311 148.52 369.768 148.455 370.254 148.455C370.986 148.455 371.628 148.561 372.179 148.771C372.735 148.982 373.146 149.27 373.409 149.633C373.673 149.99 373.854 150.471 373.954 151.074L372.407 151.285C372.337 150.805 372.132 150.43 371.792 150.16C371.458 149.891 370.983 149.756 370.368 149.756C369.642 149.756 369.123 149.876 368.812 150.116C368.502 150.356 368.347 150.638 368.347 150.96C368.347 151.165 368.411 151.35 368.54 151.514C368.669 151.684 368.871 151.824 369.146 151.936C369.305 151.994 369.771 152.129 370.544 152.34C371.663 152.639 372.442 152.885 372.882 153.078C373.327 153.266 373.676 153.541 373.928 153.904C374.18 154.268 374.306 154.719 374.306 155.258C374.306 155.785 374.15 156.283 373.84 156.752C373.535 157.215 373.093 157.575 372.513 157.833C371.933 158.085 371.276 158.211 370.544 158.211C369.331 158.211 368.405 157.959 367.767 157.455C367.134 156.951 366.729 156.204 366.554 155.214ZM375.598 153.333C375.598 151.604 376.078 150.324 377.039 149.492C377.842 148.801 378.82 148.455 379.975 148.455C381.258 148.455 382.307 148.877 383.121 149.721C383.936 150.559 384.343 151.719 384.343 153.201C384.343 154.402 384.161 155.349 383.798 156.04C383.44 156.726 382.916 157.259 382.225 157.64C381.539 158.021 380.789 158.211 379.975 158.211C378.668 158.211 377.61 157.792 376.802 156.954C375.999 156.116 375.598 154.909 375.598 153.333ZM377.224 153.333C377.224 154.528 377.484 155.425 378.006 156.022C378.527 156.614 379.184 156.91 379.975 156.91C380.76 156.91 381.413 156.611 381.935 156.014C382.456 155.416 382.717 154.505 382.717 153.28C382.717 152.126 382.453 151.253 381.926 150.661C381.404 150.063 380.754 149.765 379.975 149.765C379.184 149.765 378.527 150.061 378.006 150.652C377.484 151.244 377.224 152.138 377.224 153.333ZM386.584 158V149.896H385.187V148.666H386.584V147.673C386.584 147.046 386.64 146.58 386.751 146.275C386.903 145.865 387.17 145.534 387.551 145.282C387.938 145.024 388.477 144.896 389.168 144.896C389.613 144.896 390.105 144.948 390.645 145.054L390.407 146.434C390.079 146.375 389.769 146.346 389.476 146.346C388.995 146.346 388.655 146.448 388.456 146.653C388.257 146.858 388.157 147.242 388.157 147.805V148.666H389.977V149.896H388.157V158H386.584ZM394.67 156.585L394.898 157.982C394.453 158.076 394.055 158.123 393.703 158.123C393.129 158.123 392.684 158.032 392.367 157.851C392.051 157.669 391.828 157.432 391.699 157.139C391.57 156.84 391.506 156.216 391.506 155.267V149.896H390.346V148.666H391.506V146.354L393.079 145.405V148.666H394.67V149.896H393.079V155.354C393.079 155.806 393.105 156.096 393.158 156.225C393.217 156.354 393.308 156.456 393.431 156.532C393.56 156.608 393.741 156.646 393.976 156.646C394.151 156.646 394.383 156.626 394.67 156.585ZM397.948 158L395.092 148.666H396.727L398.212 154.054L398.766 156.058C398.789 155.958 398.95 155.316 399.249 154.133L400.734 148.666H402.36L403.758 154.08L404.224 155.864L404.76 154.062L406.359 148.666H407.897L404.979 158H403.336L401.851 152.41L401.49 150.819L399.601 158H397.948ZM415.324 156.849C414.738 157.347 414.173 157.698 413.628 157.903C413.089 158.108 412.509 158.211 411.888 158.211C410.862 158.211 410.074 157.962 409.523 157.464C408.973 156.96 408.697 156.318 408.697 155.539C408.697 155.082 408.8 154.666 409.005 154.291C409.216 153.91 409.488 153.605 409.822 153.377C410.162 153.148 410.543 152.976 410.965 152.858C411.275 152.776 411.744 152.697 412.371 152.621C413.648 152.469 414.589 152.287 415.192 152.076C415.198 151.859 415.201 151.722 415.201 151.663C415.201 151.019 415.052 150.564 414.753 150.301C414.349 149.943 413.748 149.765 412.951 149.765C412.207 149.765 411.656 149.896 411.299 150.16C410.947 150.418 410.687 150.878 410.517 151.54L408.97 151.329C409.11 150.667 409.342 150.134 409.664 149.729C409.986 149.319 410.452 149.006 411.062 148.789C411.671 148.566 412.377 148.455 413.18 148.455C413.977 148.455 414.624 148.549 415.122 148.736C415.62 148.924 415.986 149.161 416.221 149.448C416.455 149.729 416.619 150.087 416.713 150.521C416.766 150.79 416.792 151.276 416.792 151.979V154.089C416.792 155.56 416.824 156.491 416.889 156.884C416.959 157.271 417.094 157.643 417.293 158H415.641C415.477 157.672 415.371 157.288 415.324 156.849ZM415.192 153.315C414.618 153.55 413.757 153.749 412.608 153.913C411.958 154.007 411.498 154.112 411.229 154.229C410.959 154.347 410.751 154.52 410.604 154.748C410.458 154.971 410.385 155.22 410.385 155.495C410.385 155.917 410.543 156.269 410.859 156.55C411.182 156.831 411.65 156.972 412.266 156.972C412.875 156.972 413.417 156.84 413.892 156.576C414.366 156.307 414.715 155.94 414.938 155.478C415.107 155.12 415.192 154.593 415.192 153.896V153.315ZM419.235 158V148.666H420.659V150.081C421.022 149.419 421.356 148.982 421.661 148.771C421.972 148.561 422.312 148.455 422.681 148.455C423.214 148.455 423.756 148.625 424.307 148.965L423.762 150.433C423.375 150.204 422.988 150.09 422.602 150.09C422.256 150.09 421.945 150.195 421.67 150.406C421.395 150.611 421.198 150.898 421.081 151.268C420.905 151.83 420.817 152.445 420.817 153.113V158H419.235ZM431.637 154.994L433.271 155.196C433.014 156.151 432.536 156.893 431.839 157.42C431.142 157.947 430.251 158.211 429.167 158.211C427.802 158.211 426.718 157.792 425.915 156.954C425.118 156.11 424.72 154.93 424.72 153.412C424.72 151.842 425.124 150.623 425.933 149.756C426.741 148.889 427.79 148.455 429.079 148.455C430.327 148.455 431.347 148.88 432.138 149.729C432.929 150.579 433.324 151.774 433.324 153.315C433.324 153.409 433.321 153.55 433.315 153.737H426.354C426.413 154.763 426.703 155.548 427.225 156.093C427.746 156.638 428.396 156.91 429.176 156.91C429.756 156.91 430.251 156.758 430.661 156.453C431.071 156.148 431.396 155.662 431.637 154.994ZM426.442 152.437H431.654C431.584 151.651 431.385 151.062 431.057 150.67C430.553 150.061 429.899 149.756 429.097 149.756C428.37 149.756 427.758 149.999 427.26 150.485C426.768 150.972 426.495 151.622 426.442 152.437ZM446.332 158V156.822C445.74 157.748 444.87 158.211 443.722 158.211C442.978 158.211 442.292 158.006 441.665 157.596C441.044 157.186 440.561 156.614 440.215 155.882C439.875 155.144 439.705 154.297 439.705 153.342C439.705 152.41 439.86 151.566 440.171 150.811C440.481 150.049 440.947 149.466 441.568 149.062C442.189 148.657 442.884 148.455 443.651 148.455C444.214 148.455 444.715 148.575 445.154 148.815C445.594 149.05 445.951 149.357 446.227 149.738V145.115H447.8V158H446.332ZM441.331 153.342C441.331 154.537 441.583 155.431 442.087 156.022C442.591 156.614 443.186 156.91 443.871 156.91C444.562 156.91 445.148 156.629 445.629 156.066C446.115 155.498 446.358 154.634 446.358 153.474C446.358 152.196 446.112 151.259 445.62 150.661C445.128 150.063 444.521 149.765 443.801 149.765C443.098 149.765 442.509 150.052 442.034 150.626C441.565 151.2 441.331 152.105 441.331 153.342ZM456.686 154.994L458.32 155.196C458.062 156.151 457.585 156.893 456.888 157.42C456.19 157.947 455.3 158.211 454.216 158.211C452.851 158.211 451.767 157.792 450.964 156.954C450.167 156.11 449.769 154.93 449.769 153.412C449.769 151.842 450.173 150.623 450.981 149.756C451.79 148.889 452.839 148.455 454.128 148.455C455.376 148.455 456.396 148.88 457.187 149.729C457.978 150.579 458.373 151.774 458.373 153.315C458.373 153.409 458.37 153.55 458.364 153.737H451.403C451.462 154.763 451.752 155.548 452.273 156.093C452.795 156.638 453.445 156.91 454.225 156.91C454.805 156.91 455.3 156.758 455.71 156.453C456.12 156.148 456.445 155.662 456.686 154.994ZM451.491 152.437H456.703C456.633 151.651 456.434 151.062 456.105 150.67C455.602 150.061 454.948 149.756 454.146 149.756C453.419 149.756 452.807 149.999 452.309 150.485C451.816 150.972 451.544 151.622 451.491 152.437ZM462.908 158L459.357 148.666H461.027L463.031 154.256C463.248 154.859 463.447 155.486 463.629 156.137C463.77 155.645 463.966 155.053 464.218 154.361L466.292 148.666H467.918L464.385 158H462.908ZM475.705 154.994L477.34 155.196C477.082 156.151 476.604 156.893 475.907 157.42C475.21 157.947 474.319 158.211 473.235 158.211C471.87 158.211 470.786 157.792 469.983 156.954C469.187 156.11 468.788 154.93 468.788 153.412C468.788 151.842 469.192 150.623 470.001 149.756C470.81 148.889 471.858 148.455 473.147 148.455C474.396 148.455 475.415 148.88 476.206 149.729C476.997 150.579 477.393 151.774 477.393 153.315C477.393 153.409 477.39 153.55 477.384 153.737H470.423C470.481 154.763 470.771 155.548 471.293 156.093C471.814 156.638 472.465 156.91 473.244 156.91C473.824 156.91 474.319 156.758 474.729 156.453C475.14 156.148 475.465 155.662 475.705 154.994ZM470.511 152.437H475.723C475.652 151.651 475.453 151.062 475.125 150.67C474.621 150.061 473.968 149.756 473.165 149.756C472.438 149.756 471.826 149.999 471.328 150.485C470.836 150.972 470.563 151.622 470.511 152.437ZM479.3 158V145.115H480.882V158H479.3ZM482.754 153.333C482.754 151.604 483.234 150.324 484.195 149.492C484.998 148.801 485.977 148.455 487.131 148.455C488.414 148.455 489.463 148.877 490.277 149.721C491.092 150.559 491.499 151.719 491.499 153.201C491.499 154.402 491.317 155.349 490.954 156.04C490.597 156.726 490.072 157.259 489.381 157.64C488.695 158.021 487.945 158.211 487.131 158.211C485.824 158.211 484.767 157.792 483.958 156.954C483.155 156.116 482.754 154.909 482.754 153.333ZM484.38 153.333C484.38 154.528 484.641 155.425 485.162 156.022C485.684 156.614 486.34 156.91 487.131 156.91C487.916 156.91 488.569 156.611 489.091 156.014C489.612 155.416 489.873 154.505 489.873 153.28C489.873 152.126 489.609 151.253 489.082 150.661C488.561 150.063 487.91 149.765 487.131 149.765C486.34 149.765 485.684 150.061 485.162 150.652C484.641 151.244 484.38 152.138 484.38 153.333ZM493.362 161.577V148.666H494.804V149.879C495.144 149.404 495.527 149.05 495.955 148.815C496.383 148.575 496.901 148.455 497.511 148.455C498.308 148.455 499.011 148.66 499.62 149.07C500.229 149.48 500.689 150.061 501 150.811C501.311 151.555 501.466 152.372 501.466 153.263C501.466 154.218 501.293 155.079 500.947 155.847C500.607 156.608 500.109 157.194 499.453 157.604C498.803 158.009 498.117 158.211 497.396 158.211C496.869 158.211 496.395 158.1 495.973 157.877C495.557 157.654 495.214 157.373 494.944 157.033V161.577H493.362ZM494.795 153.386C494.795 154.587 495.038 155.475 495.524 156.049C496.011 156.623 496.6 156.91 497.291 156.91C497.994 156.91 498.595 156.614 499.093 156.022C499.597 155.425 499.849 154.502 499.849 153.254C499.849 152.064 499.603 151.174 499.11 150.582C498.624 149.99 498.041 149.694 497.361 149.694C496.688 149.694 496.09 150.011 495.568 150.644C495.053 151.271 494.795 152.185 494.795 153.386ZM503.382 158V148.666H504.797V149.976C505.09 149.519 505.479 149.152 505.966 148.877C506.452 148.596 507.006 148.455 507.627 148.455C508.318 148.455 508.884 148.599 509.323 148.886C509.769 149.173 510.082 149.574 510.264 150.09C511.002 149 511.963 148.455 513.146 148.455C514.072 148.455 514.784 148.713 515.282 149.229C515.78 149.738 516.029 150.526 516.029 151.593V158H514.456V152.12C514.456 151.487 514.403 151.033 514.298 150.758C514.198 150.477 514.014 150.251 513.744 150.081C513.475 149.911 513.158 149.826 512.795 149.826C512.139 149.826 511.594 150.046 511.16 150.485C510.727 150.919 510.51 151.616 510.51 152.577V158H508.928V151.936C508.928 151.232 508.799 150.705 508.541 150.354C508.283 150.002 507.861 149.826 507.275 149.826C506.83 149.826 506.417 149.943 506.036 150.178C505.661 150.412 505.389 150.755 505.219 151.206C505.049 151.657 504.964 152.308 504.964 153.157V158H503.382ZM524.766 154.994L526.4 155.196C526.143 156.151 525.665 156.893 524.968 157.42C524.271 157.947 523.38 158.211 522.296 158.211C520.931 158.211 519.847 157.792 519.044 156.954C518.247 156.11 517.849 154.93 517.849 153.412C517.849 151.842 518.253 150.623 519.062 149.756C519.87 148.889 520.919 148.455 522.208 148.455C523.456 148.455 524.476 148.88 525.267 149.729C526.058 150.579 526.453 151.774 526.453 153.315C526.453 153.409 526.45 153.55 526.444 153.737H519.483C519.542 154.763 519.832 155.548 520.354 156.093C520.875 156.638 521.525 156.91 522.305 156.91C522.885 156.91 523.38 156.758 523.79 156.453C524.2 156.148 524.525 155.662 524.766 154.994ZM519.571 152.437H524.783C524.713 151.651 524.514 151.062 524.186 150.67C523.682 150.061 523.028 149.756 522.226 149.756C521.499 149.756 520.887 149.999 520.389 150.485C519.896 150.972 519.624 151.622 519.571 152.437ZM528.396 158V148.666H529.819V149.993C530.505 148.968 531.495 148.455 532.79 148.455C533.353 148.455 533.868 148.558 534.337 148.763C534.812 148.962 535.166 149.226 535.4 149.554C535.635 149.882 535.799 150.271 535.893 150.723C535.951 151.016 535.98 151.528 535.98 152.261V158H534.398V152.322C534.398 151.678 534.337 151.197 534.214 150.881C534.091 150.559 533.871 150.304 533.555 150.116C533.244 149.923 532.878 149.826 532.456 149.826C531.782 149.826 531.199 150.04 530.707 150.468C530.221 150.896 529.978 151.707 529.978 152.902V158H528.396ZM541.869 156.585L542.098 157.982C541.652 158.076 541.254 158.123 540.902 158.123C540.328 158.123 539.883 158.032 539.566 157.851C539.25 157.669 539.027 157.432 538.898 157.139C538.77 156.84 538.705 156.216 538.705 155.267V149.896H537.545V148.666H538.705V146.354L540.278 145.405V148.666H541.869V149.896H540.278V155.354C540.278 155.806 540.305 156.096 540.357 156.225C540.416 156.354 540.507 156.456 540.63 156.532C540.759 156.608 540.94 156.646 541.175 156.646C541.351 156.646 541.582 156.626 541.869 156.585Z" fill="#777777"/>
        <path fill-rule="evenodd" clip-rule="evenodd" d="M162.911 82.5276C162.341 72.345 159.218 62.5294 153.886 54.1653C149.624 47.4799 143.691 41.3699 137.246 37.0311C128.669 31.2561 119.529 28.0573 108.992 27.1428C104.759 26.7754 97.9074 27.1413 93.7039 27.9596C89.3509 28.8067 84.9021 30.1837 80.9281 31.9138C78.985 32.7598 76.7699 33.8899 76.7753 34.0323C76.7798 34.145 77.1101 34.5794 80.1852 38.5161C81.1996 39.8146 82.8726 41.9574 83.903 43.2777C84.9334 44.598 86.6662 46.8161 87.7537 48.2068C88.8413 49.5974 91.4325 52.9163 93.5121 55.5821C95.5917 58.2479 98.1026 61.4641 99.0918 62.7292C103.877 68.8478 109.375 75.9011 109.546 76.14C109.738 76.4081 112.241 76.8212 119.897 77.8483C123.29 78.3035 127.992 78.954 131.133 79.4027C132.36 79.578 135.557 80.0234 138.238 80.3926C140.919 80.7617 145.454 81.3885 148.317 81.7853C151.18 82.1822 154.972 82.7035 156.744 82.9439C158.516 83.1841 160.598 83.4774 161.37 83.5954C162.719 83.8016 163.058 83.7909 162.992 83.5448C162.975 83.4823 162.939 83.0246 162.911 82.5276ZM162.592 87.4566C162.366 87.4566 159.08 87.8953 155.29 88.4316C151.501 88.9679 147.507 89.524 146.417 89.6673C145.326 89.8106 143.467 90.0726 142.286 90.2494C141.105 90.4262 136.383 91.0921 131.794 91.7294C127.204 92.3666 121.665 93.1393 119.484 93.4467C117.303 93.754 115.109 94.054 114.61 94.1131C114.11 94.1724 112.815 94.3614 111.732 94.5333C110.102 94.7919 109.713 94.9092 109.469 95.2174C109.307 95.4221 108.368 96.6247 107.382 97.8898C106.397 99.1549 104.702 101.326 103.615 102.714C102.528 104.102 101.347 105.618 100.99 106.082C99.7541 107.691 97.0243 111.204 96.1117 112.36C95.6072 112.998 94.6241 114.255 93.9268 115.153C91.387 118.422 86.625 124.523 86.1139 125.164C85.8255 125.525 84.4791 127.251 83.1219 128.999C81.7647 130.747 79.8176 133.244 78.7953 134.548C77.7728 135.852 76.9364 136.986 76.9364 137.067C76.9364 137.259 80.8653 139.166 82.8848 139.955C88.2179 142.037 93.1467 143.232 98.8298 143.819C101.181 144.062 107.896 144.06 110.231 143.816C120.16 142.778 130.107 139.077 138.082 133.454C141.665 130.928 145.935 127.093 148.501 124.096C149.082 123.418 149.599 122.827 149.652 122.781C149.948 122.528 152.861 118.523 153.716 117.195C159.139 108.767 162.172 99.3616 162.92 88.6478C163.003 87.466 163 87.4566 162.592 87.4566ZM92.116 81.6239C90.5918 77.9279 89.0098 74.0706 85.4454 65.358C84.743 63.6411 83.7757 61.2752 83.2961 60.1004C80.9537 54.3633 80.1049 52.2929 78.0091 47.2027C76.7626 44.1755 75.2322 40.4494 74.6083 38.9229C73.9844 37.3962 73.4386 36.1119 73.3953 36.069C73.3522 36.0259 72.737 36.382 72.0285 36.8601C63.3105 42.7418 56.6071 50.3818 52.0697 59.6075C49.8324 64.1563 48.5454 67.7614 47.3482 72.8338C46.73 75.4529 46.2029 79.5466 46.058 82.8562C45.2264 101.83 53.3689 119.656 68.2891 131.525C69.5543 132.532 73.2808 135.104 73.4735 135.104C73.5374 135.104 74.1486 133.718 74.8313 132.023C76.139 128.779 79.1186 121.424 83.6672 110.212C85.1705 106.507 86.8269 102.404 87.3484 101.094C87.8699 99.7833 89.0941 96.752 90.069 94.3573C93.3948 86.1879 93.6249 85.6079 93.6158 85.4232C93.6109 85.3217 92.9359 83.612 92.116 81.6239Z" fill="#777777"/>
    </g>
    <defs>
        <clipPath id="clip0">
            <rect width="651" height="173" fill="white"/>
        </clipPath>
    </defs>
</svg>
