<svg width="24" height="28" viewBox="0 0 24 28" fill="none" xmlns="http://www.w3.org/2000/svg">
    <path fill-rule="evenodd" clip-rule="evenodd" d="M3.25023 0.209573C2.18139 0.7664 0.718755 2.27542 0.20968 3.34645C-0.0126334 3.81427 -0.0356614 4.16842 0.0368981 6.00098C0.26848 11.846 2.47394 17.1302 6.4989 21.4836C9.82085 25.0768 13.6393 27.2449 17.7236 27.8575C20.1243 28.2174 20.8492 27.9729 22.5699 26.2227C24.1374 24.6285 24.3142 23.9188 23.5936 22.1127C23.2035 21.1353 22.8035 20.8228 20.9194 20.0244C18.8692 19.1556 17.5998 18.8122 17.046 18.9771C16.7864 19.0544 16.0925 19.5407 15.5041 20.0578C14.0306 21.3528 14.016 21.3506 11.7952 19.5035C9.54017 17.628 7.3169 14.7836 6.16289 12.298C5.57749 11.0369 5.63557 10.7635 6.737 9.59475C8.24829 7.9911 8.30681 7.7472 7.81004 5.12717C7.4442 3.1978 7.01073 1.77013 6.63388 1.25358C5.85093 0.180529 4.25274 -0.312746 3.25023 0.209573Z" fill="#777777"/>
</svg>
